inDegrees=no
num_controls=7
num_derivatives=13
num_iterations=90
num_multipliers=7
num_parameters=0
num_slacks=7
num_states=26
objective=0.454887
objective_accelerations=0.046852
objective_balance=0.001080
objective_effort=0.037288
objective_height=0.363751
objective_ligament=0.005916
solver_duration=946.113347
status=Solve_Succeeded
success=true
DataType=double
version=3
OpenSimVersion=4.5
endheader
time	/jointset/ground_pelvis/pelvis_tilt/value	/jointset/ground_pelvis/pelvis_tx/value	/jointset/ground_pelvis/pelvis_ty/value	/jointset/hip_r/hip_flexion_r/value	/jointset/hip_r/hip_adduction_r/value	/jointset/hip_r/hip_rotation_r/value	/jointset/back/lumbar_extension/value	/jointset/patellofemoral_r/patellar_flexion_r/value	/jointset/knee_r/knee_flexion_r/value	/jointset/knee_r/knee_adduction_r/value	/jointset/knee_r/knee_rotation_r/value	/jointset/ankle_r/ankle_angle_r/value	/jointset/subtalar_r/subtalar_angle_r/value	/jointset/ground_pelvis/pelvis_tilt/speed	/jointset/ground_pelvis/pelvis_tx/speed	/jointset/ground_pelvis/pelvis_ty/speed	/jointset/hip_r/hip_flexion_r/speed	/jointset/hip_r/hip_adduction_r/speed	/jointset/hip_r/hip_rotation_r/speed	/jointset/back/lumbar_extension/speed	/jointset/patellofemoral_r/patellar_flexion_r/speed	/jointset/knee_r/knee_flexion_r/speed	/jointset/knee_r/knee_adduction_r/speed	/jointset/knee_r/knee_rotation_r/speed	/jointset/ankle_r/ankle_angle_r/speed	/jointset/subtalar_r/subtalar_angle_r/speed	/forceset/tau_hip_flexion_r	/forceset/tau_hip_adduction_r	/forceset/tau_hip_rotation_r	/forceset/tau_knee_flexion_r	/forceset/tau_ankle_angle_r	/forceset/tau_subtalar_angle_r	/forceset/tau_lumbar_extension	lambda_cid13_p0	lambda_cid14_p0	lambda_cid14_p1	lambda_cid14_p2	lambda_cid14_p3	lambda_cid14_p4	lambda_cid14_p5	/jointset/ground_pelvis/pelvis_tilt/accel	/jointset/ground_pelvis/pelvis_tx/accel	/jointset/ground_pelvis/pelvis_ty/accel	/jointset/hip_r/hip_flexion_r/accel	/jointset/hip_r/hip_adduction_r/accel	/jointset/hip_r/hip_rotation_r/accel	/jointset/back/lumbar_extension/accel	/jointset/patellofemoral_r/patellar_flexion_r/accel	/jointset/knee_r/knee_flexion_r/accel	/jointset/knee_r/knee_adduction_r/accel	/jointset/knee_r/knee_rotation_r/accel	/jointset/ankle_r/ankle_angle_r/accel	/jointset/subtalar_r/subtalar_angle_r/accel	gamma_cid13_p0	gamma_cid14_p0	gamma_cid14_p1	gamma_cid14_p2	gamma_cid14_p3	gamma_cid14_p4	gamma_cid14_p5
1.5	-0.06171801273759931	0.03186986386295775	0.8208432702132163	0.7821460935097327	-0.2345021223339397	-0.1007106644654223	-0.6268023768064975	0.9336563835545136	0.9336563835545995	-0.002835899019783916	0.1742724295905345	0.297625612895594	0.1214776540172418	0.4132975617339967	0.211439041649046	0.4913889432763593	-1.92366538163973	0.05316673395623935	-0.3893539926795258	0.7984311207529697	-1.957038110450641	-1.957038110450623	0.2045138925315907	0.001548106066556638	-0.524831436862763	-0.110519509805032	-0.1476515396034038	-0.0008713621360582793	0.02543759214184548	-0.3183937461831965	0.02757814629490888	-0.009005360336097307	0.2065263536057549	-9.290789438853515	-33.83961588153687	-8.991232136555057	0.8903400053446873	-3.58530716350202	-632.123371713108	62.83410677330598	0.1290774930260979	0.5595950438256423	-0.4881454852126904	-0.9473453617687582	0.06984773261888863	-0.145428490422755	1.789199891872153	-1.281908287300824	-1.281908287300825	0.561225926032497	-0.04728130712981198	-0.5410734174329033	-0.01461490116547656	8.557787353857562e-08	-7.785900684569778e-08	-1.958294801559645e-06	-8.005102162985286e-08	2.397210219143464e-07	1.614812471056158e-07	-1.302362291183596e-06
1.51	-0.05757898014830164	0.03401201092619568	0.825731786867188	0.76286414191039	-0.2339675656370546	-0.1046129577259712	-0.6187298714255197	0.9140241938749343	0.9140241938750487	-0.0007630215167666909	0.1742874888636678	0.2923507970495406	0.1203710471957649	0.4144482503557457	0.2169650013177342	0.4862152332608066	-1.932477987537923	0.05372870611322839	-0.3910770935961405	0.8159654444581247	-1.969140338640785	-1.96914033864076	0.2100685290366874	0.001464571448571275	-0.5300563722265537	-0.1107970868008258	-0.1409915929389791	-0.001397440126520915	0.02510851058308951	-0.314273725509842	0.02932069518257138	-0.01016490463919774	0.2002861751238122	-10.33764361143815	-33.0685468017117	-9.300089917753098	0.8713613592134554	-3.666575977647009	-627.6359412058324	61.90498993860484	0.09894651440221705	0.5453362050633151	-0.5468320650400393	-0.8111891920986296	0.0468422806124121	-0.1815011730609276	1.719871961403024	-1.135470377271788	-1.135470377270921	0.5533754351838253	0.01114956994956285	-0.5018537396158622	-0.03391237418122862	7.303515564406587e-08	-8.591805125322471e-08	-1.823643715741155e-06	-1.604793736044145e-07	2.307562884992764e-07	1.368532995418861e-07	-1.180807563279624e-06
1.52	-0.05343026427926121	0.03620866554145256	0.8305655967599418	0.7435014700544228	-0.2334278951539099	-0.1085316320518269	-0.6104851581371765	0.8942787638550623	0.8942787638550559	0.00136556093619165	0.1743017206123017	0.2870260018210857	0.1192617479492547	0.4152342176836483	0.2223405520528368	0.4804475910327616	-1.939809432966329	0.05418949120507418	-0.3926302057439102	0.8328727022260005	-1.979686178526952	-1.97968617852692	0.2156548824391544	0.001382601193894023	-0.5348273133408783	-0.1110579948124008	-0.1343316462744582	-0.001923518116781174	0.02477942902259586	-0.3101537048365811	0.03106324407031481	-0.01132444894188123	0.194045996641936	-11.38606809196102	-32.29843080381765	-9.603608242301609	0.8452422882922765	-3.75870167658296	-623.1765252670641	61.01112350268256	0.0561332342563615	0.5295132571089404	-0.6069319277111134	-0.6511132678111465	0.04961031959034867	-0.1114307366536701	1.663786704415864	-0.9706306265054822	-0.9706306265054816	0.5675693055067649	-0.04696843446811108	-0.4502745675391725	-0.01128110432168527	6.262690020696087e-08	-1.028685833638563e-07	-1.812715054147462e-06	-2.827525786955747e-07	2.373827394848252e-07	1.17854195605094e-07	-1.131998553625644e-06
1.53	-0.04927551492545453	0.03845827843516367	0.8353388111128432	0.7240729209972524	-0.2328842203268281	-0.1124646060987849	-0.6020745481466744	0.874435808386207	0.8744358083861316	0.003550645105336832	0.174315040288832	0.2816558183582243	0.1181497910568294	0.4156570072703046	0.2275519460152906	0.4741015654108851	-1.945652654640223	0.05450720066945722	-0.393843849827956	0.8491373073407719	-1.988625837328511	-1.988625837328505	0.2214702234153235	0.001245838900174872	-0.5391320820499871	-0.1113634294926606	-0.1277222640672447	-0.002447060682685078	0.02439295773200207	-0.3060557234936247	0.03270932993344759	-0.01255397248574337	0.1878446876725605	-12.43315876561561	-31.57774536170379	-9.94724008271238	0.8267365261785772	-3.795050779757755	-618.9104858091623	60.05170873745562	0.02653596571215816	0.5124949639329834	-0.6624754266619243	-0.5137896571379532	0.01689072952060163	-0.1081305555769134	1.590999134175399	-0.8137818442903691	-0.8137818442943558	0.6044677190996758	-0.002503875013696013	-0.4089336601914744	-0.04505773545033424	5.448651113084842e-08	-1.292663211590365e-07	-1.933241468292615e-06	-4.494859402231204e-07	2.605748238960314e-07	1.048357380219229e-07	-1.160481869612279e-06
1.54	-0.04511830084680398	0.04075911376812086	0.8400457577000791	0.7045933671153676	-0.2323385605110949	-0.1164060764489167	-0.5935046517611905	0.8545118266618046	0.8545118266617886	0.005797072929203027	0.1743258975928376	0.2762449160807584	0.1170338032004907	0.41572716265071	0.2325850399020553	0.4671940378996061	-1.950010397912519	0.05458648892016524	-0.3943294663638745	0.8647299812223401	-1.995891429622436	-1.995891429622455	0.2279236134085889	0.0008901266788518404	-0.5429710762628746	-0.1118641875958083	-0.1211128818600076	-0.002970603248688638	0.0240064864422563	-0.3019577421506052	0.034355415796544	-0.01378349602983618	0.1816433787032238	-13.47503697949802	-30.85864428113615	-10.28623837851861	0.801882561161125	-3.837069504765866	-614.6801929463807	59.11812771088987	-0.01439360699433006	0.4938532419715115	-0.719232305591576	-0.3540175874913525	0.001926076855252105	0.03417477297187374	1.529400457774802	-0.6358173249785183	-0.6358173249785151	0.6951791089261935	-0.09075841998884907	-0.3571196682944607	-0.0503457888992478	4.704097176395565e-08	-1.471669811452026e-07	-1.999930876205214e-06	-5.717338369642673e-07	2.736314330895607e-07	9.905995198768311e-08	-1.165973341027e-06
1.55	-0.04096223009079636	0.04310931605790892	0.8446808948813564	0.6850778099487129	-0.2317928926635626	-0.1203505341196492	-0.5847823317383584	0.8345234533091715	0.8345234533091686	0.008109167918043255	0.1743326288925969	0.2707980616304061	0.1159125383443102	0.4154201947387802	0.2374177250206926	0.4597467699283596	-1.952835469581715	0.05454295098162833	-0.3945996352434931	0.8796066903208436	-2.001509251588466	-2.001509251588412	0.2344227573497173	0.0004793071567088355	-0.5463123065842465	-0.112360871237709	-0.1143990949293933	-0.003459324170047913	0.02352454715870184	-0.298099487207473	0.03613816151217157	-0.01509200456616991	0.1753630713958813	-14.50763655187276	-30.11821447069162	-10.65948410583278	0.7866901380851372	-3.858464075521398	-610.6903887299633	58.16868394215861	-0.04888915332592651	0.4723773478611587	-0.7704476957745848	-0.2069414182872321	-0.008359341716293288	-0.06318511057015196	1.447706181603544	-0.4836735759525978	-0.4836735759416675	0.6160904801577983	-0.01293975333038374	-0.3094495553142402	-0.04553743629336383	4.039602010551159e-08	-1.552775297427229e-07	-2.00459068998031e-06	-6.427267416689142e-07	2.750102121409848e-07	1.016289831728636e-07	-1.144974208913213e-06
1.56	-0.03681123716791791	0.04550672543909119	0.8492389646523448	0.6655419641730421	-0.2312478333178734	-0.1242988079576405	-0.5759150646153985	0.8144871199481716	0.8144871199481944	0.01048401603504377	0.1743359127900998	0.2653204299085884	0.1147870650948224	0.4147115960255754	0.2420264581808971	0.451780555841785	-1.954068119717085	0.05446478854274775	-0.3950926998087533	0.8937194012480609	-2.005483431295987	-2.005483431295858	0.2404742390288886	0.000200646234431714	-0.5491265305558352	-0.11270586625792	-0.1076853079987357	-0.003948045091420464	0.02304260787490344	-0.2942412322643385	0.03792090722780655	-0.01640051310250777	0.1690827640885825	-15.52821923049168	-29.37952000028624	-11.02875152318443	0.7659731261534739	-3.883803247920429	-606.7381505150704	57.2399033211139	-0.09471976724988439	0.449062850285316	-0.8230215286571961	-0.03553328072601654	-0.004998823213507901	-0.01040436415644855	1.376600823517124	-0.307088873276425	-0.3070888732764253	0.6056466565349047	-0.06432670001561168	-0.251718398337373	-0.02000806456127176	3.552542758899927e-08	-1.629934502178232e-07	-2.019560353129823e-06	-7.130001263002009e-07	2.765630672357962e-07	1.041274902153789e-07	-1.117091393295653e-06
1.57	-0.03266926942148456	0.04794905436688639	0.8537148552546234	0.6460017416620882	-0.2307036561945127	-0.1282526630195975	-0.5669106653054448	0.7944194161180788	0.7944194161180796	0.01291738180716632	0.1743367534590742	0.259817388293411	0.1136590234979164	0.4136190681912761	0.2463966619738411	0.4433176710426764	-1.953705176263048	0.05436311240006566	-0.3956472966829676	0.907018752140578	-2.007760484331264	-2.007760484331172	0.2461721741015791	-4.878701868625454e-05	-0.5513849064727382	-0.1128790305472746	-0.1009869707672727	-0.004435680638536603	0.02249030426797485	-0.2905160221511702	0.03973521462248103	-0.01775381298436365	0.1628295165394492	-16.53466094351012	-28.65036718707636	-11.41922489043959	0.7487303781753107	-3.895132694245667	-603.0391103252963	56.30113557961048	-0.1259768022993513	0.4246552047535573	-0.8698844061107304	0.1128616725038229	-0.01416317150877559	-0.0732897324846854	1.285345930977254	-0.1434922291800915	-0.1434922291857408	0.5475379585589011	-0.007885879810220514	-0.1983138957139542	-0.01287732757080987	3.28727839999016e-08	-1.702160855398989e-07	-2.047417327997358e-06	-7.82374110839787e-07	2.783335173848416e-07	1.065378420795626e-07	-1.080603973298376e-06
1.58	-0.02854011845555597	0.05043381654479948	0.8581037245187966	0.6264732792884857	-0.2301607780648796	-0.1322111245270135	-0.5577775237447952	0.7743378460155331	0.7743378460155181	0.01540686113525781	0.1743345729471049	0.2542946795775948	0.11252986891483	0.4121482399258765	0.2505131082044741	0.4343762882206556	-1.951716092247643	0.05420498978883818	-0.3960139888943974	0.9194678513875273	-2.008256685787615	-2.008256685787559	0.2516969502111578	-0.0004035899458166176	-0.5530599506835182	-0.1129284634945543	-0.09428863353577278	-0.004923316185666027	0.02193800066074845	-0.2867908120380028	0.04154952201716065	-0.01910711286623458	0.1565762689903545	-17.5253389920209	-27.92220787607829	-11.8065403423298	0.7271787765304878	-3.909829829967569	-599.3654958182281	55.3735838733197	-0.1703798534705064	0.3983113378234945	-0.918721133239648	0.2896948315474251	-0.01628811692260664	0.02717656840043377	1.206550494403071	0.04908144250866037	0.04908144250866025	0.5710148639126427	-0.08540063481802358	-0.1350520571123529	0.00473820385375028	2.996991548890066e-08	-1.765389636226373e-07	-2.072294834655519e-06	-8.488136734531857e-07	2.788735044625963e-07	1.126421271035706e-07	-1.043736321675266e-06
